<svg xmlns="http://www.w3.org/2000/svg" viewBox="0 0 400 300" width="400" height="300">
  <rect width="400" height="300" fill="#f8fafc"/>
  <rect width="400" height="60" fill="#1f2937"/>
  <rect x="20" y="20" width="100" height="20" rx="4" fill="white"/>
  <rect x="320" y="15" width="60" height="30" rx="6" fill="#374151"/>
  
  <rect x="20" y="80" width="360" height="80" rx="8" fill="white" stroke="#e5e7eb" stroke-width="2"/>
  <rect x="30" y="90" width="120" height="60" rx="4" fill="#f3f4f6"/>
  <rect x="160" y="95" width="200" height="10" rx="5" fill="#1f2937"/>
  <rect x="160" y="115" width="180" height="6" rx="3" fill="#6b7280"/>
  <rect x="160" y="130" width="150" height="6" rx="3" fill="#6b7280"/>
  <rect x="160" y="145" width="100" height="6" rx="3" fill="#6b7280"/>
  
  <rect x="20" y="180" width="360" height="80" rx="8" fill="white" stroke="#e5e7eb" stroke-width="2"/>
  <rect x="30" y="190" width="120" height="60" rx="4" fill="#f3f4f6"/>
  <rect x="160" y="195" width="200" height="10" rx="5" fill="#1f2937"/>
  <rect x="160" y="215" width="180" height="6" rx="3" fill="#6b7280"/>
  <rect x="160" y="230" width="150" height="6" rx="3" fill="#6b7280"/>
  <rect x="160" y="245" width="100" height="6" rx="3" fill="#6b7280"/>
  
  <text x="200" y="45" text-anchor="middle" font-family="Inter, sans-serif" font-size="12" fill="white">Blog Template</text>
</svg>