<svg xmlns="http://www.w3.org/2000/svg" viewBox="0 0 400 300" width="400" height="300">
  <rect width="400" height="300" fill="#f8fafc"/>
  <rect width="60" height="300" fill="#1f2937"/>
  
  <rect x="10" y="20" width="40" height="12" rx="6" fill="#374151"/>
  <rect x="10" y="40" width="40" height="8" rx="4" fill="#4b5563"/>
  <rect x="10" y="55" width="40" height="8" rx="4" fill="#4b5563"/>
  <rect x="10" y="70" width="40" height="8" rx="4" fill="#4b5563"/>
  <rect x="10" y="85" width="40" height="8" rx="4" fill="#4b5563"/>
  
  <rect x="80" y="20" width="300" height="40" rx="8" fill="white" stroke="#e5e7eb"/>
  <rect x="90" y="35" width="80" height="10" rx="5" fill="#3b82f6"/>
  
  <rect x="80" y="80" width="145" height="100" rx="8" fill="white" stroke="#e5e7eb"/>
  <rect x="90" y="100" width="60" height="40" rx="4" fill="#ddd6fe"/>
  <rect x="90" y="150" width="80" height="8" rx="4" fill="#d1d5db"/>
  <rect x="90" y="165" width="50" height="6" rx="3" fill="#9ca3af"/>
  
  <rect x="235" y="80" width="145" height="100" rx="8" fill="white" stroke="#e5e7eb"/>
  <rect x="245" y="100" width="60" height="40" rx="4" fill="#fef3c7"/>
  <rect x="245" y="150" width="80" height="8" rx="4" fill="#d1d5db"/>
  <rect x="245" y="165" width="50" height="6" rx="3" fill="#9ca3af"/>
  
  <rect x="80" y="200" width="300" height="80" rx="8" fill="white" stroke="#e5e7eb"/>
  <rect x="90" y="220" width="280" height="6" rx="3" fill="#e5e7eb"/>
  <rect x="90" y="235" width="200" height="6" rx="3" fill="#e5e7eb"/>
  <rect x="90" y="250" width="250" height="6" rx="3" fill="#e5e7eb"/>
  <rect x="90" y="265" width="180" height="6" rx="3" fill="#e5e7eb"/>
  
  <text x="230" y="15" text-anchor="middle" font-family="Inter, sans-serif" font-size="12" fill="#64748b">Dashboard Template</text>
</svg>