<svg xmlns="http://www.w3.org/2000/svg" viewBox="0 0 400 300" width="400" height="300">
  <rect width="400" height="300" fill="#f8fafc"/>
  <rect width="400" height="60" fill="#3b82f6"/>
  <rect x="20" y="20" width="120" height="20" rx="4" fill="white" opacity="0.9"/>
  <rect x="300" y="15" width="80" height="30" rx="6" fill="white" opacity="0.2" stroke="white" stroke-width="1"/>
  
  <rect x="20" y="100" width="360" height="40" rx="8" fill="#e2e8f0"/>
  <rect x="30" y="110" width="80" height="20" rx="4" fill="#cbd5e1"/>
  
  <rect x="20" y="160" width="170" height="120" rx="8" fill="#e2e8f0"/>
  <rect x="210" y="160" width="170" height="120" rx="8" fill="#e2e8f0"/>
  
  <circle cx="105" cy="200" r="20" fill="#cbd5e1"/>
  <rect x="70" y="230" width="70" height="8" rx="4" fill="#cbd5e1"/>
  <rect x="80" y="245" width="50" height="6" rx="3" fill="#d1d5db"/>
  
  <circle cx="295" cy="200" r="20" fill="#cbd5e1"/>
  <rect x="260" y="230" width="70" height="8" rx="4" fill="#cbd5e1"/>
  <rect x="270" y="245" width="50" height="6" rx="3" fill="#d1d5db"/>
  
  <text x="200" y="150" text-anchor="middle" font-family="Inter, sans-serif" font-size="14" fill="#64748b">Landing Page Template</text>
</svg>