<svg xmlns="http://www.w3.org/2000/svg" viewBox="0 0 400 300" width="400" height="300">
  <rect width="400" height="300" fill="#f8fafc"/>
  
  <rect x="50" y="40" width="100" height="220" rx="12" fill="white" stroke="#e5e7eb" stroke-width="2"/>
  <rect x="60" y="60" width="80" height="12" rx="6" fill="#3b82f6"/>
  <rect x="70" y="80" width="60" height="8" rx="4" fill="#1f2937"/>
  <rect x="60" y="100" width="80" height="6" rx="3" fill="#6b7280"/>
  <rect x="60" y="115" width="80" height="6" rx="3" fill="#6b7280"/>
  <rect x="60" y="140" width="80" height="20" rx="4" fill="#f59e0b"/>
  <text x="100" y="152" text-anchor="middle" font-family="Inter, sans-serif" font-size="8" fill="white">Basic</text>
  <rect x="60" y="170" width="80" height="6" rx="3" fill="#6b7280"/>
  <rect x="60" y="185" width="80" height="6" rx="3" fill="#6b7280"/>
  <rect x="60" y="210" width="80" height="25" rx="6" fill="#e5e7eb"/>
  
  <rect x="150" y="20" width="100" height="260" rx="12" fill="white" stroke="#3b82f6" stroke-width="3"/>
  <rect x="160" y="40" width="80" height="12" rx="6" fill="#3b82f6"/>
  <rect x="170" y="60" width="60" height="8" rx="4" fill="#1f2937"/>
  <rect x="160" y="80" width="80" height="6" rx="3" fill="#6b7280"/>
  <rect x="160" y="95" width="80" height="6" rx="3" fill="#6b7280"/>
  <rect x="160" y="110" width="80" height="6" rx="3" fill="#6b7280"/>
  <rect x="160" y="140" width="80" height="20" rx="4" fill="#10b981"/>
  <text x="200" y="152" text-anchor="middle" font-family="Inter, sans-serif" font-size="8" fill="white">Pro</text>
  <rect x="160" y="170" width="80" height="6" rx="3" fill="#6b7280"/>
  <rect x="160" y="185" width="80" height="6" rx="3" fill="#6b7280"/>
  <rect x="160" y="200" width="80" height="6" rx="3" fill="#6b7280"/>
  <rect x="160" y="230" width="80" height="25" rx="6" fill="#3b82f6"/>
  
  <rect x="250" y="40" width="100" height="220" rx="12" fill="white" stroke="#e5e7eb" stroke-width="2"/>
  <rect x="260" y="60" width="80" height="12" rx="6" fill="#6366f1"/>
  <rect x="270" y="80" width="60" height="8" rx="4" fill="#1f2937"/>
  <rect x="260" y="100" width="80" height="6" rx="3" fill="#6b7280"/>
  <rect x="260" y="115" width="80" height="6" rx="3" fill="#6b7280"/>
  <rect x="260" y="130" width="80" height="6" rx="3" fill="#6b7280"/>
  <rect x="260" y="160" width="80" height="20" rx="4" fill="#8b5cf6"/>
  <text x="300" y="172" text-anchor="middle" font-family="Inter, sans-serif" font-size="8" fill="white">Enterprise</text>
  <rect x="260" y="190" width="80" height="6" rx="3" fill="#6b7280"/>
  <rect x="260" y="210" width="80" height="25" rx="6" fill="#e5e7eb"/>
  
  <text x="200" y="20" text-anchor="middle" font-family="Inter, sans-serif" font-size="14" fill="#64748b">Pricing Template</text>
</svg>